<?xml version="1.0" encoding="utf-8"?>
<!-- Generator: Adobe Illustrator 27.5.0, SVG Export Plug-In . SVG Version: 6.00 Build 0)  -->
<svg version="1.1" xmlns="http://www.w3.org/2000/svg" xmlns:xlink="http://www.w3.org/1999/xlink" x="0px" y="0px"
	 viewBox="0 0 3710 3710" style="enable-background:new 0 0 3710 3710;" xml:space="preserve">
<g id="Background">
	<g>
		<g>
			<rect style="fill:#FFFFFF;" width="3710" height="3710"/>
		</g>
	</g>
</g>
<g id="Illustration">
	<g>
		<linearGradient id="SVGID_1_" gradientUnits="userSpaceOnUse" x1="3448.616" y1="3260.8821" x2="1415.2112" y2="1481.6542">
			<stop  offset="0" style="stop-color:#DAE3FE"/>
			<stop  offset="1" style="stop-color:#E9EFFD"/>
		</linearGradient>
		<path style="fill:url(#SVGID_1_);" d="M3103.043,2336.85c-262.798,618.783-962.83,965.429-1569.9,871.923
			c-98.782-15.216-369.597-60.54-609.366-274.364C462.205,2522.781,363.494,1707.703,735.83,1133.299
			c270.995-418.065,756.782-655.053,1218.374-643.198c99.427,2.553,480.473,18.29,815.346,294.419
			c49.186,40.558,157.672,136.935,255.443,289.831C3254.578,1433.378,3274.311,1933.581,3103.043,2336.85z"/>
		<g>
			<g>
				<g style="opacity:0.3;">
					<path style="fill:#BDD0FB;" d="M1639.936,929.229c-3.907-0.716-6.493-4.466-5.775-8.372c1.393-7.59,2.478-15.352,3.223-23.073
						c0.377-3.907,3.814-6.779,7.71-6.478c0.046,0.003,0.092,0.007,0.14,0.011c3.953,0.382,6.848,3.896,6.466,7.851
						c-0.785,8.127-1.926,16.299-3.393,24.289c-0.67,3.653-3.995,6.151-7.619,5.871
						C1640.438,929.307,1640.187,929.277,1639.936,929.229z M1638.433,859.954c-0.314-7.747-0.962-15.553-1.928-23.21
						c-0.497-3.938,2.293-7.537,6.234-8.035c3.957-0.486,7.538,2.296,8.035,6.237c1.017,8.055,1.7,16.272,2.032,24.423
						c0.161,3.968-2.927,7.316-6.895,7.477c-0.288,0.012-0.574,0.006-0.854-0.016
						C1641.473,866.553,1638.582,863.634,1638.433,859.954z M1629.17,799.637c-2.025-7.462-4.399-14.926-7.059-22.19
						c-1.365-3.729,0.552-7.86,4.28-9.226c3.727-1.36,7.858,0.551,9.226,4.281c2.801,7.649,5.302,15.511,7.433,23.368
						c1.04,3.833-1.225,7.783-5.057,8.825c-0.817,0.221-1.64,0.293-2.438,0.231C1632.609,804.699,1629.988,802.653,1629.17,799.637z
						 M1606.649,742.908c-3.646-6.829-7.631-13.578-11.844-20.063c-2.163-3.331-1.217-7.786,2.113-9.948
						c3.333-2.16,7.784-1.212,9.948,2.113c4.435,6.829,8.63,13.935,12.469,21.12c1.87,3.503,0.547,7.86-2.956,9.731
						c-1.253,0.669-2.616,0.93-3.935,0.828C1610.078,746.506,1607.852,745.156,1606.649,742.908z M1572.052,692.609
						c-5.06-5.835-10.441-11.536-15.996-16.942c-2.845-2.773-2.906-7.325-0.136-10.17c2.772-2.848,7.325-2.907,10.169-0.135
						c5.843,5.687,11.506,11.686,16.829,17.826c2.602,2.999,2.279,7.541-0.722,10.143c-1.512,1.312-3.415,1.88-5.265,1.737
						C1575.11,694.928,1573.343,694.098,1572.052,692.609z M1527.188,651.219c-6.233-4.579-12.74-8.945-19.342-12.98
						c-3.388-2.071-4.457-6.498-2.387-9.885c2.071-3.39,6.496-4.459,9.887-2.388c6.948,4.245,13.798,8.843,20.357,13.661
						c3.2,2.352,3.889,6.851,1.538,10.053c-1.527,2.08-3.961,3.097-6.357,2.912C1529.591,652.493,1528.31,652.044,1527.188,651.219z
						 M1263.269,610.491c-1.36-3.731,0.563-7.859,4.295-9.219c7.645-2.784,15.516-5.272,23.392-7.393
						c3.836-1.033,7.782,1.239,8.813,5.074c1.034,3.833-1.238,7.779-5.073,8.812c-7.478,2.014-14.951,4.377-22.21,7.022
						c-0.996,0.363-2.019,0.492-3.012,0.415C1266.75,614.992,1264.265,613.228,1263.269,610.491z M1474.297,620.823
						c-7.092-3.076-14.403-5.881-21.733-8.336c-3.766-1.263-5.797-5.339-4.535-9.105c1.262-3.768,5.334-5.777,9.104-4.533
						c7.718,2.586,15.418,5.54,22.886,8.78c3.643,1.581,5.316,5.815,3.735,9.46c-1.253,2.89-4.177,4.54-7.151,4.31
						C1475.83,621.339,1475.051,621.148,1474.297,620.823z M1323.804,594.251c-0.49-3.94,2.31-7.533,6.251-8.023
						c8.073-1.001,16.297-1.667,24.441-1.983c3.972-0.172,7.309,2.94,7.464,6.908c0.154,3.968-2.939,7.309-6.908,7.465
						c-7.74,0.3-15.555,0.932-23.227,1.886c-0.489,0.061-0.973,0.068-1.447,0.032
						C1327.04,600.277,1324.232,597.702,1323.804,594.251z M1415.951,603.012c-7.597-1.41-15.354-2.512-23.059-3.271
						c-3.954-0.388-6.841-3.907-6.452-7.861c0.385-3.901,3.818-6.765,7.708-6.464c0.05,0.004,0.102,0.008,0.152,0.015
						c8.112,0.797,16.279,1.955,24.274,3.438c3.905,0.728,6.483,4.48,5.758,8.385c-0.676,3.647-3.998,6.137-7.616,5.857
						C1416.463,603.091,1416.207,603.057,1415.951,603.012z"/>
					<path style="fill:#BDD0FB;" d="M1223.787,636.708c1.412,0.109,2.871-0.195,4.185-0.967c3.198-1.877,6.489-3.716,9.78-5.473
						c3.504-1.867,4.831-6.225,2.963-9.728c-1.867-3.505-6.226-4.837-9.729-2.961c-3.463,1.845-6.923,3.781-10.289,5.755
						c-3.425,2.009-4.575,6.417-2.566,9.84C1219.369,635.287,1221.518,636.533,1223.787,636.708z"/>
				</g>
				<g style="opacity:0.3;">
					<path style="fill:#BDD0FB;" d="M1093.004,812.673c3.46,0.268,6.7-2.006,7.539-5.488c0.866-3.604,1.823-7.252,2.844-10.838
						c1.087-3.821-1.128-7.799-4.948-8.886c-3.836-1.091-7.799,1.13-8.886,4.948c-1.074,3.776-2.083,7.618-2.996,11.413
						c-0.928,3.861,1.449,7.745,5.31,8.674C1092.247,812.586,1092.627,812.644,1093.004,812.673z"/>
					<path style="fill:#BDD0FB;" d="M1329.301,1156.17c-3.94-0.499-6.729-4.099-6.229-8.041c0.5-3.94,4.095-6.721,8.039-6.227
						c7.501,0.952,15.159,1.598,22.849,1.933c3.949,0.159,7.044,3.531,6.871,7.499c-0.173,3.968-3.53,7.044-7.498,6.872
						c-3.332-0.145-6.648-0.345-9.947-0.6C1338.68,1157.242,1333.941,1156.76,1329.301,1156.17z M1384.691,1150.753
						c-0.365-3.953,2.545-7.455,6.499-7.82c7.592-0.703,15.237-1.732,22.721-3.063c3.903-0.707,7.644,1.91,8.34,5.82
						c0.695,3.908-1.911,7.642-5.821,8.337c-7.88,1.402-15.928,2.487-23.917,3.224c-0.414,0.038-0.825,0.041-1.225,0.01
						C1387.859,1156.997,1385.018,1154.295,1384.691,1150.753z M1290.855,1148.587c-7.725-2.082-15.467-4.523-23.011-7.26
						c-3.734-1.354-5.663-5.478-4.309-9.214c1.354-3.733,5.477-5.657,9.213-4.308c7.164,2.599,14.514,4.918,21.85,6.894
						c3.835,1.035,6.106,4.98,5.073,8.817c-0.915,3.392-4.109,5.559-7.49,5.298
						C1291.74,1148.78,1291.296,1148.706,1290.855,1148.587z M1445.406,1139.908c-1.225-3.777,0.844-7.835,4.622-9.058
						c7.242-2.348,14.47-5.035,21.482-7.983c3.664-1.542,7.876,0.178,9.416,3.841c1.54,3.661-0.179,7.875-3.84,9.415
						c-7.385,3.105-14.997,5.934-22.622,8.407c-0.922,0.298-1.859,0.403-2.77,0.333
						C1448.875,1144.645,1446.331,1142.764,1445.406,1139.908z M1232.036,1125.48c-7.073-3.728-14.086-7.812-20.844-12.138
						c-3.345-2.141-4.321-6.586-2.182-9.931c2.141-3.348,6.589-4.323,9.934-2.182c6.42,4.108,13.081,7.988,19.798,11.527
						c3.514,1.853,4.861,6.203,3.008,9.716c-1.38,2.618-4.146,4.032-6.919,3.818
						C1233.882,1126.217,1232.931,1125.952,1232.036,1125.48z M1179.711,1090.033c-6.102-5.197-12.056-10.712-17.696-16.391
						c-2.798-2.82-2.783-7.372,0.036-10.171c2.823-2.802,7.375-2.785,10.17,0.037c5.36,5.396,11.017,10.637,16.816,15.577
						c3.024,2.575,3.387,7.114,0.812,10.138c-1.552,1.821-3.818,2.677-6.034,2.505
						C1182.351,1091.615,1180.911,1091.056,1179.711,1090.033z M1136.352,1044.023c-4.828-6.406-9.439-13.087-13.705-19.855
						c-2.118-3.362-1.11-7.8,2.249-9.918c3.364-2.121,7.801-1.109,9.918,2.249c4.053,6.433,8.435,12.779,13.024,18.867
						c2.391,3.172,1.757,7.681-1.414,10.07c-1.457,1.099-3.194,1.559-4.88,1.428
						C1139.557,1046.711,1137.645,1045.738,1136.352,1044.023z M1104.063,989.652c-3.31-7.305-6.347-14.837-9.024-22.387
						c-1.328-3.743,0.63-7.854,4.374-9.182c3.737-1.325,7.852,0.633,9.18,4.375c2.542,7.167,5.425,14.318,8.57,21.258
						c1.639,3.617,0.036,7.878-3.582,9.516c-1.143,0.518-2.348,0.712-3.516,0.621
						C1107.535,993.659,1105.186,992.128,1104.063,989.652z M1084.501,929.483c-1.615-7.836-2.916-15.845-3.867-23.808
						c-0.471-3.944,2.344-7.524,6.288-7.994c3.931-0.468,7.522,2.343,7.993,6.287c0.902,7.564,2.139,15.171,3.672,22.615
						c0.802,3.888-1.702,7.692-5.591,8.493c-0.677,0.14-1.352,0.18-2.009,0.129C1087.872,934.964,1085.162,932.695,1084.501,929.483
						z M1078.633,866.552c0.095-5.895,0.374-11.861,0.828-17.728c0.164-2.126,0.352-4.241,0.562-6.352
						c0.393-3.95,3.872-6.919,7.866-6.443c3.952,0.39,6.838,3.913,6.446,7.866c-0.199,2.005-0.378,4.019-0.535,6.039
						c-0.432,5.579-0.697,11.247-0.788,16.852c-0.064,3.97-3.336,7.138-7.306,7.073c-0.149-0.003-0.298-0.009-0.445-0.02
						C1081.501,873.547,1078.57,870.374,1078.633,866.552z"/>
					<path style="fill:#BDD0FB;" d="M1508.032,1119.375c1.426,0.11,2.896-0.201,4.218-0.984c3.349-1.987,6.718-4.081,10.016-6.227
						c3.33-2.166,4.273-6.62,2.108-9.949c-2.167-3.329-6.617-4.276-9.949-2.108c-3.133,2.037-6.334,4.027-9.512,5.913
						c-3.415,2.024-4.542,6.436-2.516,9.852C1503.638,1117.968,1505.777,1119.201,1508.032,1119.375z"/>
				</g>
				<g>
					<path style="fill:#BDD0FB;" d="M1538.651,999.954c0.989-1.039,1.212-2.589,0.553-3.863l-18.785-36.339
						c9.683-16.468,16.81-34.598,20.838-53.84l38.32-14.241c1.344-0.5,2.223-1.797,2.189-3.231l-1.166-49.053
						c-0.033-1.434-0.974-2.688-2.339-3.123l-38.954-12.405c-4.938-19.029-12.917-36.801-23.373-52.79l17.037-37.19
						c0.597-1.304,0.301-2.843-0.736-3.832l-35.51-33.862c-1.037-0.989-2.589-1.212-3.863-0.553l-36.339,18.785
						c-16.468-9.684-34.598-16.811-53.841-20.838l-14.241-38.32c-0.5-1.344-1.797-2.224-3.23-2.189l-49.054,1.165
						c-1.434,0.034-2.687,0.974-3.122,2.34l-12.405,38.954c-19.03,4.937-36.801,12.917-52.79,23.373l-37.19-17.038
						c-1.303-0.597-2.843-0.302-3.832,0.736l-33.862,35.51c-0.989,1.037-1.211,2.589-0.554,3.862l18.786,36.34
						c-9.684,16.467-16.81,34.597-20.838,53.84l-38.32,14.242c-1.344,0.499-2.224,1.796-2.189,3.23l1.166,49.054
						c0.034,1.434,0.974,2.688,2.34,3.122l38.954,12.405c4.937,19.029,12.918,36.801,23.372,52.79l-17.037,37.19
						c-0.598,1.303-0.302,2.842,0.736,3.832l35.511,33.862c1.038,0.989,2.589,1.211,3.862,0.553l36.339-18.785
						c16.468,9.684,34.598,16.81,53.841,20.839l14.241,38.32c0.5,1.343,1.797,2.222,3.23,2.189l49.054-1.166
						c1.433-0.034,2.688-0.974,3.123-2.34l12.405-38.953c19.03-4.937,36.801-12.918,52.79-23.373l37.19,17.037
						c1.303,0.597,2.843,0.301,3.832-0.736L1538.651,999.954z"/>
					
						<linearGradient id="SVGID_00000021111703360024591490000007521906585936768170_" gradientUnits="userSpaceOnUse" x1="1316.4753" y1="869.0261" x2="1415.1293" y2="869.0261">
						<stop  offset="0" style="stop-color:#DAE3FE"/>
						<stop  offset="1" style="stop-color:#E9EFFD"/>
					</linearGradient>
					<path style="fill:url(#SVGID_00000021111703360024591490000007521906585936768170_);" d="M1354.87,917.128
						c-26.519-6.029-43.19-32.506-37.162-59.028c2.919-12.847,10.668-23.788,21.817-30.806c11.146-7.018,24.361-9.279,37.209-6.355
						c26.519,6.029,43.19,32.506,37.162,59.028c-5.485,24.127-27.895,40.101-51.866,38.247
						C1359.655,918.03,1357.261,917.671,1354.87,917.128z M1345.655,837.031c-8.549,5.382-14.488,13.77-16.728,23.621
						c-4.621,20.331,8.161,40.636,28.493,45.257c20.337,4.63,40.636-8.161,45.258-28.494c4.621-20.331-8.161-40.636-28.493-45.257
						c-1.844-0.419-3.695-0.697-5.546-0.84C1360.6,830.695,1352.603,832.658,1345.655,837.031z"/>
					
						<linearGradient id="SVGID_00000161610967683678660950000004316251667061064340_" gradientUnits="userSpaceOnUse" x1="1243.8331" y1="868.2527" x2="1486.3842" y2="868.2527">
						<stop  offset="0" style="stop-color:#DAE3FE"/>
						<stop  offset="1" style="stop-color:#E9EFFD"/>
					</linearGradient>
					<path style="fill:url(#SVGID_00000161610967683678660950000004316251667061064340_);" d="M1355.533,989.161
						c4.117,0.318,8.274,0.432,12.458,0.333l0,0c1.317-0.031,2.634-0.084,3.95-0.157c6.487-0.363,12.935-1.242,19.244-2.622
						c0.086-0.019,0.172-0.037,0.258-0.056c0.244-0.054,0.487-0.109,0.731-0.166c0.474-0.107,0.948-0.22,1.42-0.332
						c1.243-0.298,2.101-1.362,2.197-2.572c0.023-0.294,0-0.597-0.073-0.899c-0.371-1.544-1.926-2.49-3.469-2.122
						c-7.948,1.913-16.155,2.98-24.394,3.173c-40.924,0.98-77.449-19.561-98.732-51.264c-11.84-17.632-18.963-38.719-19.503-61.48
						c-0.096-3.991,0.011-7.958,0.316-11.885c2.047-26.427,13.029-51.14,31.568-70.581c21.294-22.332,50.011-35.035,80.858-35.768
						c63.709-1.508,116.722,49.066,118.235,112.744c0.094,3.926-0.012,7.843-0.315,11.733c-1.307,16.857-6.287,33.241-14.642,47.959
						c-0.215,0.381-0.336,0.788-0.366,1.197c-0.083,1.076,0.446,2.156,1.448,2.723c1.385,0.781,3.138,0.305,3.922-1.083
						c8.771-15.451,14.002-32.653,15.374-50.35c0.317-4.083,0.428-8.194,0.331-12.315c-1.589-66.857-57.291-119.948-124.123-118.361
						c-32.385,0.769-62.531,14.106-84.886,37.55c-19.463,20.409-30.991,46.353-33.141,74.096c-0.319,4.123-0.431,8.287-0.333,12.475
						c0.771,32.387,14.105,62.534,37.549,84.888C1301.83,975.488,1327.783,987.015,1355.533,989.161z"/>
				</g>
			</g>
			<g>
				<g style="opacity:0.3;">
					<path style="fill:#BDD0FB;" d="M1870.746,1137.195c1.916,0.148,3.777-0.965,4.493-2.854c1.338-3.525,2.588-7.139,3.713-10.741
						c0.731-2.341-0.573-4.83-2.915-5.564c-2.342-0.742-4.832,0.575-5.564,2.915c-1.072,3.432-2.263,6.877-3.539,10.241
						c-0.871,2.291,0.284,4.855,2.576,5.729C1869.918,1137.074,1870.333,1137.163,1870.746,1137.195z"/>
					<path style="fill:#BDD0FB;" d="M1879.432,1104.216c-2.413-0.439-4.016-2.747-3.579-5.162c1.1-6.093,1.901-12.312,2.378-18.484
						c0.101-1.302,0.186-2.609,0.26-3.922c0.139-2.447,2.235-4.321,4.685-4.184c2.31,0.222,4.321,2.235,4.186,4.687
						c-0.078,1.373-0.168,2.741-0.274,4.103c-0.5,6.469-1.34,12.991-2.495,19.38c-0.407,2.261-2.463,3.812-4.708,3.638
						C1879.736,1104.262,1879.585,1104.241,1879.432,1104.216z M1878.385,1054.093c-0.493-7.49-1.453-15.017-2.858-22.369
						c-0.459-2.411,1.119-4.734,3.53-5.195c2.397-0.454,4.736,1.119,5.196,3.53c1.472,7.705,2.481,15.597,2.996,23.45
						c0.161,2.448-1.693,4.563-4.142,4.726c-0.214,0.014-0.429,0.01-0.639-0.006
						C1880.301,1058.061,1878.532,1056.323,1878.385,1054.093z M1869.921,1009.873c-2.309-7.13-5.091-14.189-8.27-20.987
						c-1.038-2.22-0.079-4.865,2.142-5.903c2.229-1.041,4.866-0.085,5.905,2.141c3.334,7.127,6.25,14.535,8.673,22.009
						c0.755,2.333-0.522,4.841-2.856,5.596c-0.569,0.182-1.148,0.246-1.71,0.203
						C1872.066,1012.798,1870.494,1011.636,1869.921,1009.873z M1850.852,969.084c-3.994-6.356-8.42-12.523-13.151-18.319
						c-1.551-1.904-1.268-4.701,0.634-6.25c1.896-1.546,4.696-1.268,6.249,0.631c4.963,6.083,9.601,12.545,13.791,19.212
						c1.305,2.076,0.678,4.82-1.399,6.126c-0.839,0.523-1.784,0.737-2.701,0.666C1852.919,971.045,1851.63,970.323,1850.852,969.084
						z M1822.402,934.186c-5.417-5.191-11.204-10.094-17.205-14.578c-1.964-1.466-2.367-4.25-0.899-6.216
						c1.468-1.966,4.251-2.373,6.217-0.898c6.289,4.698,12.355,9.839,18.034,15.277c1.769,1.699,1.831,4.509,0.134,6.279
						c-0.958,1-2.273,1.456-3.553,1.357C1824.143,935.33,1823.174,934.924,1822.402,934.186z M1786.343,907.252
						c-6.51-3.714-13.312-7.055-20.223-9.93c-2.263-0.941-3.337-3.542-2.394-5.806c0.943-2.263,3.534-3.333,5.808-2.396
						c7.245,3.014,14.383,6.52,21.212,10.416c2.129,1.217,2.872,3.929,1.657,6.057c-0.88,1.541-2.545,2.357-4.203,2.229
						C1787.567,907.774,1786.933,907.59,1786.343,907.252z M1744.809,889.963c-7.2-1.997-14.622-3.567-22.061-4.665
						c-2.426-0.361-4.102-2.619-3.743-5.044c0.357-2.426,2.607-4.066,5.044-3.747c7.798,1.156,15.58,2.802,23.131,4.895
						c2.364,0.657,3.749,3.105,3.094,5.468c-0.576,2.079-2.542,3.401-4.618,3.241
						C1745.376,890.089,1745.093,890.041,1744.809,889.963z M1672.875,880.24c-0.242-2.442,1.54-4.614,3.982-4.856
						c6.758-0.669,13.668-0.979,20.52-0.923c1.042,0.003,2.078,0.022,3.116,0.045c2.441-0.011,4.392,2.097,4.327,4.555
						c-0.061,2.453-2.099,4.388-4.553,4.329c-0.973-0.027-1.948-0.042-2.942-0.044c-6.558-0.055-13.15,0.24-19.595,0.877
						c-0.265,0.027-0.529,0.029-0.784,0.009C1674.839,884.068,1673.089,882.415,1672.875,880.24z"/>
				</g>
				<g style="opacity:0.3;">
					<path style="fill:#BDD0FB;" d="M1678.382,1257.323c-7.71-0.696-15.443-1.873-22.988-3.488
						c-2.396-0.516-3.926-2.875-3.412-5.276c0.514-2.401,2.888-3.901,5.276-3.411c7.194,1.544,14.57,2.662,21.926,3.327
						c2.443,0.219,4.244,2.381,4.023,4.823c-0.22,2.423-2.347,4.217-4.764,4.03
						C1678.423,1257.327,1678.401,1257.325,1678.382,1257.323z M1697.065,1253.713c-0.073-2.451,1.855-4.498,4.306-4.57
						c7.376-0.221,14.812-0.89,22.104-1.992c2.412-0.357,4.689,1.302,5.054,3.732c0.367,2.426-1.302,4.685-3.727,5.054
						c-7.642,1.153-15.435,1.856-23.164,2.085c-0.163,0.005-0.322,0.001-0.482-0.011
						C1698.923,1257.838,1697.134,1256.007,1697.065,1253.713z M1632.984,1247.574c-7.317-2.541-14.54-5.549-21.469-8.943
						c-2.203-1.079-3.115-3.743-2.035-5.943c1.078-2.205,3.729-3.109,5.941-2.038c6.61,3.239,13.499,6.108,20.478,8.536
						c2.318,0.806,3.542,3.337,2.739,5.65c-0.677,1.949-2.573,3.125-4.537,2.973
						C1633.73,1247.779,1633.355,1247.703,1632.984,1247.574z M1742.083,1247.972c-0.661-2.361,0.72-4.813,3.082-5.474
						c7.105-1.987,14.157-4.43,20.963-7.266c2.263-0.939,4.864,0.133,5.808,2.389c0.943,2.266-0.126,4.867-2.392,5.81
						c-7.136,2.976-14.535,5.541-21.987,7.622c-0.516,0.143-1.035,0.189-1.538,0.151
						C1744.211,1251.064,1742.6,1249.817,1742.083,1247.972z M1591.304,1227.149c-6.476-4.216-12.761-8.874-18.685-13.844
						c-1.879-1.577-2.123-4.38-0.547-6.259c1.577-1.88,4.378-2.128,6.259-0.547c5.648,4.744,11.642,9.184,17.82,13.203
						c2.054,1.338,2.638,4.089,1.297,6.147c-0.916,1.409-2.5,2.125-4.068,2.004
						C1592.665,1227.798,1591.95,1227.569,1591.304,1227.149z M1555.735,1197.317c-5.288-5.656-10.279-11.684-14.835-17.914
						c-1.448-1.979-1.018-4.755,0.963-6.203c1.976-1.448,4.758-1.02,6.208,0.963c4.346,5.939,9.109,11.689,14.155,17.087
						c1.675,1.791,1.58,4.603-0.212,6.278c-0.947,0.884-2.178,1.276-3.378,1.183
						C1557.567,1198.629,1556.524,1198.161,1555.735,1197.317z M1528.329,1159.824c-3.784-6.762-7.184-13.815-10.108-20.959
						c-0.929-2.273,0.159-4.864,2.43-5.793c2.269-0.93,4.862,0.163,5.792,2.427c2.786,6.815,6.029,13.539,9.64,19.983
						c1.198,2.141,0.434,4.849-1.708,6.045c-0.794,0.447-1.664,0.619-2.507,0.554
						C1530.436,1161.97,1529.084,1161.17,1528.329,1159.824z"/>
					<path style="fill:#BDD0FB;" d="M1788.086,1233.658c0.854,0.066,1.736-0.114,2.537-0.57c3.304-1.88,6.566-3.869,9.699-5.906
						c2.055-1.338,2.64-4.09,1.302-6.147c-1.341-2.048-4.088-2.635-6.147-1.302c-2.987,1.944-6.1,3.839-9.252,5.636
						c-2.132,1.214-2.875,3.928-1.661,6.057C1785.324,1232.757,1786.666,1233.549,1788.086,1233.658z"/>
				</g>
				<g>
					<path style="fill:#BDD0FB;" d="M1811.489,1152.405c0.662-0.695,0.811-1.733,0.37-2.585l-12.57-24.317
						c6.48-11.019,11.248-23.151,13.943-36.027l25.642-9.53c0.9-0.334,1.487-1.202,1.465-2.162l-0.781-32.824
						c-0.022-0.959-0.652-1.799-1.565-2.09l-26.066-8.3c-3.304-12.734-8.644-24.626-15.64-35.325l11.4-24.886
						c0.4-0.872,0.202-1.902-0.493-2.564l-23.762-22.659c-0.694-0.662-1.733-0.811-2.585-0.37l-24.316,12.57
						c-11.019-6.48-23.152-11.249-36.028-13.944l-9.529-25.642c-0.334-0.9-1.202-1.488-2.161-1.465l-32.825,0.78
						c-0.96,0.023-1.798,0.652-2.089,1.566l-8.301,26.066c-12.734,3.304-24.626,8.643-35.325,15.64l-24.886-11.401
						c-0.872-0.399-1.902-0.202-2.564,0.493l-22.659,23.762c-0.662,0.694-0.81,1.732-0.37,2.584l12.57,24.317
						c-6.48,11.019-11.249,23.151-13.944,36.027l-25.642,9.53c-0.899,0.333-1.488,1.202-1.465,2.161l0.78,32.825
						c0.023,0.959,0.652,1.798,1.566,2.089l26.066,8.3c3.304,12.734,8.644,24.626,15.64,35.325l-11.4,24.886
						c-0.4,0.872-0.202,1.902,0.493,2.564l23.762,22.659c0.695,0.662,1.733,0.811,2.585,0.37l24.316-12.57
						c11.019,6.48,23.151,11.249,36.028,13.944l9.529,25.642c0.334,0.899,1.202,1.487,2.162,1.465l32.824-0.781
						c0.959-0.023,1.798-0.652,2.089-1.566l8.301-26.065c12.734-3.304,24.626-8.645,35.324-15.64l24.886,11.401
						c0.872,0.4,1.902,0.202,2.564-0.493L1811.489,1152.405z"/>
					
						<linearGradient id="SVGID_00000077325733336871416920000005631269415708466056_" gradientUnits="userSpaceOnUse" x1="1662.2174" y1="1064.8048" x2="1729.4265" y2="1064.8048">
						<stop  offset="0" style="stop-color:#DAE3FE"/>
						<stop  offset="1" style="stop-color:#E9EFFD"/>
					</linearGradient>
					<path style="fill:url(#SVGID_00000077325733336871416920000005631269415708466056_);" d="M1688.382,1097.558
						c-8.754-1.987-16.207-7.266-20.987-14.861c-4.781-7.592-6.319-16.594-4.329-25.345c4.105-18.063,22.113-29.395,40.209-25.315
						c18.064,4.111,29.418,22.148,25.311,40.206c-1.988,8.751-7.266,16.205-14.859,20.986c-6.173,3.886-13.278,5.629-20.421,5.076
						C1691.664,1098.178,1690.017,1097.929,1688.382,1097.558z M1671.728,1059.318c-1.464,6.439-0.333,13.06,3.184,18.649
						c3.516,5.584,9,9.467,15.436,10.93l0,0c6.439,1.455,13.058,0.331,18.647-3.187c5.585-3.514,9.466-9,10.93-15.434
						c3.02-13.288-5.331-26.554-18.618-29.578c-1.2-0.271-2.397-0.451-3.589-0.543
						C1685.707,1039.226,1674.475,1047.232,1671.728,1059.318z"/>
					
						<linearGradient id="SVGID_00000171716938137590521720000008636599460741343893_" gradientUnits="userSpaceOnUse" x1="1611.6931" y1="1064.2748" x2="1779.033" y2="1064.2748">
						<stop  offset="0" style="stop-color:#DAE3FE"/>
						<stop  offset="1" style="stop-color:#E9EFFD"/>
					</linearGradient>
					<path style="fill:url(#SVGID_00000171716938137590521720000008636599460741343893_);" d="M1688.846,1147.694
						c2.802,0.217,5.637,0.292,8.505,0.227c5.694-0.134,11.381-0.847,16.915-2.124c0.248-0.059,0.496-0.118,0.745-0.178
						c1.92-0.46,3.245-2.102,3.392-3.971c0.035-0.454,0-0.922-0.112-1.387c-0.573-2.385-2.975-3.841-5.357-3.277
						c-5.156,1.242-10.468,1.931-15.79,2.055l-0.002,0c-0.292,0.008-0.586,0.011-0.876,0.015
						c-12.597,0.179-24.762-2.79-35.625-8.502c-5.896-3.101-11.41-7.017-16.398-11.688c-0.041-0.038-0.081-0.076-0.122-0.114
						c-0.124-0.119-0.248-0.233-0.369-0.351c-14.456-13.786-22.68-32.376-23.154-52.347c-0.063-2.585,0.007-5.151,0.203-7.693
						c1.325-17.108,8.436-33.107,20.437-45.695c13.787-14.456,32.377-22.676,52.344-23.151c19.957-0.466,38.93,6.857,53.389,20.639
						c14.456,13.786,22.68,32.377,23.154,52.347c0.062,2.541-0.008,5.076-0.202,7.593c-0.846,10.915-4.07,21.52-9.479,31.047
						c-0.333,0.588-0.519,1.217-0.565,1.849c-0.129,1.661,0.689,3.329,2.235,4.206c2.136,1.205,4.843,0.466,6.057-1.672
						c6.051-10.66,9.66-22.528,10.608-34.735c0.218-2.82,0.296-5.654,0.229-8.496c-0.532-22.345-9.732-43.143-25.908-58.567
						c-16.174-15.42-37.373-23.638-59.726-23.091c-22.343,0.53-43.14,9.728-58.563,25.906
						c-13.429,14.079-21.382,31.979-22.865,51.12c-0.22,2.841-0.299,5.715-0.23,8.604
						C1612.748,1109.519,1646.6,1144.426,1688.846,1147.694z"/>
				</g>
			</g>
		</g>
		<g>
			<path style="fill:#BDD0FB;" d="M720.974,497.988c-5.926-14.84,10.928-28.483,24.345-19.803
				c136.238,88.135,475.333,364.578,509.596,949.161c42.987,733.446,240.048,968.109,455.133,1094.003
				c0,0-269.169-28.665-478.218-265.129C718.568,1675.647,826.337,761.842,720.974,497.988z"/>
			<path style="fill:#FFFFFF;" d="M850.272,706.013c29.077,77.236,56.616,155.003,81.272,233.667
				c25.064,78.52,47.738,157.765,67.908,237.602c19.862,79.908,38.223,160.176,53.146,241.105
				c15.286,80.858,27.083,162.281,38.641,244.074c12.008,81.681,23.64,164.034,43.739,245.447
				c19.982,81.261,49.985,161.442,93.75,233.763c10.93,18.021,22.23,35.912,34.472,52.959
				c11.931,17.281,24.631,34.039,37.625,50.562c26.16,32.925,54.549,64.17,85.127,93.166
				c61.314,57.845,131.389,106.309,205.838,144.572c7.836,4.027,17.452,0.939,21.48-6.896c3.955-7.694,1.048-17.106-6.477-21.257
				l-0.053-0.03c-17.844-9.819-35.554-19.83-52.757-30.597c-8.689-5.247-17.127-10.868-25.668-16.328
				c-8.323-5.776-16.873-11.232-25.009-17.26c-32.94-23.554-64.188-49.393-93.369-77.413
				c-58.575-55.694-109.129-120.431-151.059-189.447c-20.582-34.756-38.567-70.967-53.703-108.438
				c-15.109-37.485-27.361-76.19-37.414-115.623c-20.121-78.909-32.308-160.326-44.903-241.915
				c-12.703-81.591-26.029-163.494-42.703-244.722c-8.227-40.631-17.183-81.109-26.859-121.407
				c-4.722-20.176-9.834-40.257-14.909-60.343c-5.268-20.038-10.645-40.045-16.185-60.003
				c-22.307-79.796-47.038-158.873-74.232-237.058c-27.569-78.054-57.201-155.35-89.759-231.375
				c-0.932-2.174-3.446-3.18-5.619-2.249C850.482,701.476,849.475,703.886,850.272,706.013z"/>
		</g>
		<g>
			<g>
				<path style="fill:#91B3FA;" d="M1015.582,2780.872c-9.421,27.895-44.268,37.103-66.492,17.792
					c-122.63-106.552-442.105-439.168-423.637-999.682c15.596-473.328-20.927-731.469-45.628-847.506
					c-5.223-24.537,23.914-41.48,42.688-24.841C729.651,1110.214,1356.94,1770.101,1015.582,2780.872z"/>
				<path style="fill:#FFFFFF;" d="M975.732,2781.974c-0.599,0.417-1.245,0.78-1.939,1.085c-5.809,2.558-12.594-0.077-15.152-5.887
					c-2.9-6.587-290.099-666.197-298.143-1325.308c-0.075-6.343,5.006-11.552,11.356-11.636c6.349-0.075,11.556,5.006,11.636,11.356
					c7.984,654.313,293.311,1309.78,296.191,1316.323C981.934,2773.024,980.158,2778.896,975.732,2781.974z"/>
			</g>
		</g>
		<g>
			<g>
				
					<linearGradient id="SVGID_00000110437391279848494980000018167508966051823241_" gradientUnits="userSpaceOnUse" x1="2042.1984" y1="1024.484" x2="1682.7051" y2="4379.7573">
					<stop  offset="0" style="stop-color:#4F52FF"/>
					<stop  offset="1" style="stop-color:#4042E2"/>
				</linearGradient>
				<path style="fill:url(#SVGID_00000110437391279848494980000018167508966051823241_);" d="M3230.759,1458.523l-29.068,1230.158
					l-4.514,190.252c0,24.865-20.39,44.995-45.254,44.995H705.966c-24.865,0-45.254-20.13-45.254-44.995l-2.762-190.363
					l-17.588-1215.083c0-24.865,29.3-73.36,82.959-69.702l2390.469-61.856c31.207-0.778,61.403,11.214,83.504,33.276
					C3219.396,1397.23,3231.498,1427.354,3230.759,1458.523z"/>
				<path style="opacity:0.2;fill:#91B3FA;" d="M3137.368,2840.696c0,23.193-19.39,42.17-43.088,42.17H764.237
					c-23.699,0-43.088-18.977-43.088-42.17l-19.388-1311.744c0-23.194,27.893-68.474,79.015-65.071l2277.175-57.722
					c29.735-0.754,58.485,10.458,79.541,31.019c21.057,20.561,32.578,48.672,31.876,77.775L3137.368,2840.696z"/>
				<g>
					<path style="fill:#7D97F4;" d="M2684.039,1610.978c-0.592,21.608-12.072,39.393-25.666,39.472l-808.199,4.811
						c-15.304,0.089-27.65-18.844-27.548-41.831l0,0c0.103-23.015,12.644-42.085,27.981-42.085h809.864
						C2674.092,1571.344,2684.632,1589.346,2684.039,1610.978L2684.039,1610.978z"/>
					<path style="fill:#7D97F4;" d="M2675.324,2544.368c-0.584,21.607-11.903,38.651-25.307,38.73l-796.9,4.44
						c-15.09,0.089-27.264-17.547-27.162-40.534l0,0c0.101-23.015,12.467-40.787,27.59-40.787h798.541
						C2665.516,2506.218,2675.909,2522.736,2675.324,2544.368L2675.324,2544.368z"/>
					<path style="fill:#7D97F4;" d="M2675.399,2394.892c-0.586,21.607-11.951,38.504-25.408,38.583l-800.093,4.366
						c-15.15,0.089-27.373-17.289-27.271-40.276l0,0c0.102-23.015,12.517-40.53,27.7-40.53h801.741
						C2665.552,2357.036,2675.986,2373.26,2675.399,2394.892L2675.399,2394.892z"/>
					<path style="fill:#7D97F4;" d="M2683.958,1776.724c-0.586,18.056-20.549,32.844-44.625,33.044l-770.923,6.433
						c-25.441,0.212-45.955-14.68-45.779-33.28l0.02-2.094c0.177-18.621,21.014-33.853,46.501-34.005l772.298-4.612
						c24.117-0.144,43.162,14.406,42.574,32.481L2683.958,1776.724z"/>
					<path style="fill:#7D97F4;" d="M2681.049,1938.976c-0.697,17.899-20.698,32.542-44.711,32.724l-768.837,5.805
						c-25.369,0.192-45.73-14.584-45.438-33.02l0.033-2.076c0.293-18.456,21.165-33.538,46.58-33.671l770.191-4.006
						c24.054-0.125,42.959,14.312,42.261,32.229L2681.049,1938.976z"/>
				</g>
				<path style="fill:#BDD0FB;" d="M3092.882,2890.776h-262.085c-1.832,0-3.315-1.483-3.315-3.315c0-1.832,1.483-3.315,3.315-3.315
					h262.085c32.245,0,59.485-29.966,59.485-65.435v-806.45c0-1.832,1.483-3.315,3.315-3.315c1.832,0,3.315,1.483,3.315,3.315
					v806.45C3158.998,2857.773,3128.721,2890.776,3092.882,2890.776z"/>
				<path style="fill:#BDD0FB;" d="M705.784,2012.26c-1.832,0-3.315-1.483-3.315-3.315v-466.216
					c0-47.944,35.797-84.099,83.267-84.099h208.466c1.832,0,3.315,1.483,3.315,3.315s-1.483,3.315-3.315,3.315H785.736
					c-44.405,0-76.637,32.582-76.637,77.469v466.216C709.099,2010.777,707.616,2012.26,705.784,2012.26z"/>
				<g>
					
						<linearGradient id="SVGID_00000009556581175034945680000013849011993724843938_" gradientUnits="userSpaceOnUse" x1="3531.0251" y1="200.8596" x2="3352.0154" y2="683.1917">
						<stop  offset="0" style="stop-color:#FF928E"/>
						<stop  offset="1" style="stop-color:#FE7062"/>
					</linearGradient>
					<path style="fill:url(#SVGID_00000009556581175034945680000013849011993724843938_);" d="M3018.532,1966.82l-174.446,1.556
						c-32.068,0.286-58.47-26.136-58.549-58.719l-0.433-177.719c-0.08-32.582,26.194-58.973,58.263-58.647l174.454,1.771
						c31.222,0.317,56.737,26.736,56.815,58.71l0.425,174.406C3075.139,1940.153,3049.752,1966.541,3018.532,1966.82z"/>
					
						<linearGradient id="SVGID_00000088105474108173124540000000913246029803853446_" gradientUnits="userSpaceOnUse" x1="2691.9141" y1="2662.9714" x2="3104.6147" y2="1225.1713" gradientTransform="matrix(1 -0.0024 0.0024 1 -7.1572 4.8077)">
						<stop  offset="0" style="stop-color:#FEBBBA"/>
						<stop  offset="1" style="stop-color:#FF928E"/>
					</linearGradient>
					<path style="fill:url(#SVGID_00000088105474108173124540000000913246029803853446_);" d="M3006.321,1950.081l-149.846,1.172
						c-29.622,0.232-53.867-24.082-53.94-54.199l-0.372-152.49c-0.073-30.119,24.053-54.403,53.676-54.135l149.853,1.356
						c28.941,0.262,52.466,24.573,52.539,54.195l0.365,149.973C3058.668,1925.572,3035.261,1949.854,3006.321,1950.081z
						 M2855.857,1697.987c-25.502-0.219-46.263,20.695-46.2,46.618l0.371,152.417c0.063,25.921,20.926,46.859,46.427,46.672
						l149.847-1.099c24.927-0.182,45.099-21.094,45.037-46.611l-0.366-150.044c-0.062-25.521-20.335-46.456-45.264-46.669
						L2855.857,1697.987z"/>
					<g>
						<g>
							<path style="fill:#F4F7FA;" d="M2805.956,1763.479l248.694,1.071L2805.956,1763.479z"/>
							
								<linearGradient id="SVGID_00000053541103403902314020000004119225848691265166_" gradientUnits="userSpaceOnUse" x1="2665.8601" y1="2698.6003" x2="3078.5593" y2="1260.8049" gradientTransform="matrix(1.0022 -0.0111 0.0024 1 -8.4346 11.1876)">
								<stop  offset="0" style="stop-color:#FEBBBA"/>
								<stop  offset="1" style="stop-color:#FF928E"/>
							</linearGradient>
							<polygon style="fill:url(#SVGID_00000053541103403902314020000004119225848691265166_);" points="3054.657,1768.281 
								2805.967,1767.271 2805.948,1759.688 3054.639,1760.821 							"/>
						</g>
						<g>
							<path style="fill:#F4F7FA;" d="M2806.095,1820.811l248.693,0.153L2806.095,1820.811z"/>
							
								<linearGradient id="SVGID_00000008851672341660392540000016516571904997724088_" gradientUnits="userSpaceOnUse" x1="2680.9426" y1="2702.9338" x2="3093.6431" y2="1265.1354" gradientTransform="matrix(1.0022 -0.0111 0.0024 1 -8.4346 11.1876)">
								<stop  offset="0" style="stop-color:#FEBBBA"/>
								<stop  offset="1" style="stop-color:#FF928E"/>
							</linearGradient>
							<polygon style="fill:url(#SVGID_00000008851672341660392540000016516571904997724088_);" points="3054.795,1824.695 
								2806.106,1824.603 2806.088,1817.02 3054.777,1817.233 							"/>
						</g>
						<g>
							<path style="fill:#F4F7FA;" d="M2806.235,1878.143l248.69-0.767L2806.235,1878.143z"/>
							
								<linearGradient id="SVGID_00000031178673505253784690000005331643622975036599_" gradientUnits="userSpaceOnUse" x1="2696.0271" y1="2707.2615" x2="3108.7283" y2="1269.4602" gradientTransform="matrix(1.0022 -0.0111 0.0024 1 -8.4346 11.1876)">
								<stop  offset="0" style="stop-color:#FEBBBA"/>
								<stop  offset="1" style="stop-color:#FF928E"/>
							</linearGradient>
							<polygon style="fill:url(#SVGID_00000031178673505253784690000005331643622975036599_);" points="3054.932,1881.107 
								2806.246,1881.935 2806.227,1874.353 3054.914,1873.646 							"/>
						</g>
					</g>
					<g>
						
							<linearGradient id="SVGID_00000116918477629321023240000003675444592673628600_" gradientUnits="userSpaceOnUse" x1="3532.1433" y1="201.2766" x2="3353.1343" y2="683.6068">
							<stop  offset="0" style="stop-color:#FF928E"/>
							<stop  offset="1" style="stop-color:#FE7062"/>
						</linearGradient>
						<path style="fill:url(#SVGID_00000116918477629321023240000003675444592673628600_);" d="M2966.351,1919.437l-69.485,0.404
							c-17.737,0.103-32.314-14.596-32.358-32.664l-0.323-132.66c-0.044-18.067,14.462-32.749,32.199-32.623l69.487,0.489
							c17.537,0.123,31.891,14.879,31.935,32.791l0.321,131.513C2998.169,1904.597,2983.887,1919.335,2966.351,1919.437z"/>
						
							<linearGradient id="SVGID_00000093151494596820029250000011424826866488127394_" gradientUnits="userSpaceOnUse" x1="2692.6863" y1="2663.1953" x2="3105.387" y2="1225.3955" gradientTransform="matrix(1 -0.0024 0.0024 1 -7.1572 4.8077)">
							<stop  offset="0" style="stop-color:#FEBBBA"/>
							<stop  offset="1" style="stop-color:#FF928E"/>
						</linearGradient>
						<path style="fill:url(#SVGID_00000093151494596820029250000011424826866488127394_);" d="M2966.36,1923.187l-69.487,0.421
							c-19.828,0.12-36.037-16.217-36.087-36.419l-0.323-132.692c-0.049-20.201,16.081-36.519,35.909-36.375l69.49,0.505
							c19.601,0.143,35.55,16.544,35.598,36.561l0.321,131.481C3001.83,1906.688,2985.96,1923.069,2966.36,1923.187z
							 M2896.392,1725.661c-15.735-0.106-28.529,12.846-28.49,28.872l0.323,132.629c0.039,16.026,12.896,28.995,28.63,28.907
							l69.487-0.386c15.562-0.087,28.167-13.09,28.128-28.986l-0.321-131.544c-0.039-15.896-12.707-28.915-28.269-29.021
							L2896.392,1725.661z"/>
					</g>
				</g>
			</g>
			<path style="fill:#FFFFFF;" d="M1714.782,2593.905h-892.06c-6.6,0-12-5.4-12-12v-964.696c0-6.6,5.4-12,12-12h892.06
				c6.6,0,12,5.4,12,12v964.696C1726.782,2588.505,1721.382,2593.905,1714.782,2593.905z"/>
			<g>
				<defs>
					<path id="SVGID_00000131334452636879621700000013562227834651431296_" d="M1714.426,2593.905h-892.06c-6.6,0-12-5.4-12-12
						v-964.696c0-6.6,5.4-12,12-12h892.06c6.6,0,12,5.4,12,12v964.696C1726.426,2588.505,1721.026,2593.905,1714.426,2593.905z"/>
				</defs>
				<clipPath id="SVGID_00000120544443636897969730000016259876712179781549_">
					<use xlink:href="#SVGID_00000131334452636879621700000013562227834651431296_"  style="overflow:visible;"/>
				</clipPath>
				<g style="clip-path:url(#SVGID_00000120544443636897969730000016259876712179781549_);">
					
						<linearGradient id="SVGID_00000139287309597964233480000011952105329933968312_" gradientUnits="userSpaceOnUse" x1="1573.7438" y1="2105.467" x2="1710.6548" y2="2562.2036">
						<stop  offset="0" style="stop-color:#09005D"/>
						<stop  offset="1" style="stop-color:#1A0F91"/>
					</linearGradient>
					<path style="fill:url(#SVGID_00000139287309597964233480000011952105329933968312_);" d="M1807.161,2555.23
						c-27.411-159.643-100.584-305.417-100.584-305.417l-95.803,332.184c0,0,1.653,3.74,4.402,12.075l159.52-0.339
						C1795.088,2593.689,1810.612,2575.329,1807.161,2555.23z"/>
					
						<linearGradient id="SVGID_00000003071317320951498720000004604451631813623438_" gradientUnits="userSpaceOnUse" x1="793.577" y1="2250.1938" x2="932.5264" y2="2713.7302">
						<stop  offset="0" style="stop-color:#09005D"/>
						<stop  offset="1" style="stop-color:#1A0F91"/>
					</linearGradient>
					<path style="fill:url(#SVGID_00000003071317320951498720000004604451631813623438_);" d="M977.911,2594.071
						c10.501-37.504,18.568-61.653,18.568-61.653l-156.576-282.605c0,0-35.568,42.371-73.666,286.16
						c-4.75,30.398,17.906,58.098,48.673,58.098H977.911z"/>
					
						<linearGradient id="SVGID_00000049916664798356593000000012074591376333644223_" gradientUnits="userSpaceOnUse" x1="2263.3376" y1="-269.6185" x2="2084.3284" y2="212.7122">
						<stop  offset="0" style="stop-color:#FF928E"/>
						<stop  offset="1" style="stop-color:#FE7062"/>
					</linearGradient>
					<path style="fill:url(#SVGID_00000049916664798356593000000012074591376333644223_);" d="M1517.178,2594.071L1474.722,2149
						c-189.648-70.088-428.769,8.351-428.769,8.351l-19.683,436.72H1517.178z"/>
					<g>
						
							<linearGradient id="SVGID_00000107580984346499652640000008489564494056959364_" gradientUnits="userSpaceOnUse" x1="1257.4849" y1="2090.2717" x2="1278.2887" y2="2439.1348">
							<stop  offset="0" style="stop-color:#FEBBBA"/>
							<stop  offset="1" style="stop-color:#FF928E"/>
						</linearGradient>
						<path style="fill:url(#SVGID_00000107580984346499652640000008489564494056959364_);" d="M1170.196,2008.615l-3.56,117.453
							c-0.352,11.615,6.853,22.08,17.811,25.945c30.03,10.594,92.199,26.699,151.116,5.603c11.885-4.257,19.04-16.423,17.203-28.914
							l-17.659-120.088H1170.196z"/>
						
							<linearGradient id="SVGID_00000005231359270632759490000015708676890539347893_" gradientUnits="userSpaceOnUse" x1="1216.4972" y1="1811.6592" x2="1508.5518" y2="2201.3315">
							<stop  offset="0" style="stop-color:#FEBBBA"/>
							<stop  offset="1" style="stop-color:#FF928E"/>
						</linearGradient>
						<path style="fill:url(#SVGID_00000005231359270632759490000015708676890539347893_);" d="M1110.146,1794.231
							c0,0,20.614,210.261,65.965,263.857c0,0,136.051,12.369,185.525-16.491c0,0,35.043-105.131,30.92-245.306
							c0,0,6.756-127.556-133.989-138.112C1093.655,1645.81,1110.146,1794.231,1110.146,1794.231z"/>
						
							<linearGradient id="SVGID_00000030476128899575578780000003484679422114891939_" gradientUnits="userSpaceOnUse" x1="1302.2196" y1="1747.412" x2="1594.2731" y2="2137.083">
							<stop  offset="0" style="stop-color:#FEBBBA"/>
							<stop  offset="1" style="stop-color:#FF928E"/>
						</linearGradient>
						<path style="fill:url(#SVGID_00000030476128899575578780000003484679422114891939_);" d="M1378.126,1860.195
							c0,0,12.369-37.106,32.982-37.106c20.614,0-4.123,98.947-32.982,98.947V1860.195z"/>
						
							<linearGradient id="SVGID_00000035529592548934942470000013626211158904614806_" gradientUnits="userSpaceOnUse" x1="1116.8397" y1="1886.3512" x2="1408.8934" y2="2276.0225">
							<stop  offset="0" style="stop-color:#FEBBBA"/>
							<stop  offset="1" style="stop-color:#FF928E"/>
						</linearGradient>
						<path style="fill:url(#SVGID_00000035529592548934942470000013626211158904614806_);" d="M1128.907,1869.939
							c0,0-17.259-35.098-37.685-32.317c-20.426,2.779,17.428,97.486,46.024,93.595L1128.907,1869.939z"/>
						
							<linearGradient id="SVGID_00000168809444234762890110000014502362028166287758_" gradientUnits="userSpaceOnUse" x1="1112.8145" y1="1946.1165" x2="1396.3254" y2="1946.1165">
							<stop  offset="0" style="stop-color:#09005D"/>
							<stop  offset="1" style="stop-color:#1A0F91"/>
						</linearGradient>
						<path style="fill:url(#SVGID_00000168809444234762890110000014502362028166287758_);" d="M1112.814,1820.478
							c0,0,16.187,202.248,71.427,272.794c5.071,6.475,12.401,10.24,20.13,10.652c28.197,1.502,100.277,4.186,140.917-4.784
							c10.116-2.232,18.443-10.129,21.772-20.942c5.92-19.224,11.205-34.521,11.502-41.286c1.376-31.36,8.542-118.297,17.762-236.82
							c-2.812-4.453-5.624-8.906-8.436-13.359c-2.552,27.409-19.34,201.929-45.926,205.975c-5.722,0.87-11.936-0.383-11.936-0.383
							c-16.131-3.253-21.068-15.965-32.287-24.226c-19.581-14.417-53.229-11.541-72.013,3.545
							c-7.801,6.265-12.73,14.389-26.369,20.193c-8.714,3.708-16.894,4.73-19.506,4.62c-19.435-0.82-38.763-77.282-49.609-181.367
							L1112.814,1820.478z"/>
						
							<linearGradient id="SVGID_00000161592096441480167840000002837146889486145706_" gradientUnits="userSpaceOnUse" x1="1256.5331" y1="2051.4531" x2="1256.5331" y2="1525.9166">
							<stop  offset="0" style="stop-color:#09005D"/>
							<stop  offset="1" style="stop-color:#1A0F91"/>
						</linearGradient>
						<path style="fill:url(#SVGID_00000161592096441480167840000002837146889486145706_);" d="M1336.899,1741.717
							c0,0-105.039,91.143-219.492,90.789c0,0-64.98-146.44,62.827-170.788c127.806-24.348,131.928,6.956,131.928,6.956
							s149.452-30.967,82.971,147.992L1336.899,1741.717z"/>
					</g>
					
						<linearGradient id="SVGID_00000023242830053765903540000017347992713882667649_" gradientUnits="userSpaceOnUse" x1="986" y1="2171.9436" x2="1133.6072" y2="2664.3623">
						<stop  offset="0" style="stop-color:#09005D"/>
						<stop  offset="1" style="stop-color:#1A0F91"/>
					</linearGradient>
					<path style="fill:url(#SVGID_00000023242830053765903540000017347992713882667649_);" d="M977.497,2594.071h112.53
						l54.01-460.165c-147.886,13.45-304.134,115.907-304.134,115.907l116.337,282.27
						C964.575,2552.295,971.665,2573.236,977.497,2594.071z"/>
					
						<linearGradient id="SVGID_00000137845117571438861010000017841415684033818773_" gradientUnits="userSpaceOnUse" x1="1462.9509" y1="2037.0979" x2="1624.4712" y2="2575.9309">
						<stop  offset="0" style="stop-color:#09005D"/>
						<stop  offset="1" style="stop-color:#1A0F91"/>
					</linearGradient>
					<path style="fill:url(#SVGID_00000137845117571438861010000017841415684033818773_);" d="M1618.849,2594.071
						c6.348-26.392,13.912-50.734,22.679-75.488l65.048-268.771c-129.59-101.235-332.28-124.904-332.28-124.904l75.751,469.162
						H1618.849z"/>
				</g>
			</g>
		</g>
		<g>
			
				<linearGradient id="SVGID_00000110432228134839407190000017451894392906603652_" gradientUnits="userSpaceOnUse" x1="3386.7778" y1="1651.9028" x2="3268.3992" y2="2014.7582" gradientTransform="matrix(1 0 0 1 -754.9978 0)">
				<stop  offset="0" style="stop-color:#FEBBBA"/>
				<stop  offset="1" style="stop-color:#FF928E"/>
			</linearGradient>
			<path style="fill:url(#SVGID_00000110432228134839407190000017451894392906603652_);" d="M2516.056,1685.816
				c0,0-161.835,207.203,22.807,417.944l69.417-6.469c0,0-127.076-204.043-78.188-372.785c2.157-7.445,9.145-12.441,16.876-11.877
				l70.866,5.174c9.427,0.689,18.765-2.221,26.133-8.142l42.912-34.485L2516.056,1685.816z"/>
			<g>
				
					<linearGradient id="SVGID_00000088828608674595881050000003330717485564773808_" gradientUnits="userSpaceOnUse" x1="2185.0862" y1="341.1489" x2="2681.873" y2="1560.5376">
					<stop  offset="0" style="stop-color:#FF928E"/>
					<stop  offset="1" style="stop-color:#FE7062"/>
				</linearGradient>
				<path style="fill:url(#SVGID_00000088828608674595881050000003330717485564773808_);" d="M3015.571,820.724
					c-2.551-39.434-26.366-74.367-62.062-91.32l-462.475-219.647c-29.617-14.066-63.99-14.066-93.608,0l-462.475,219.647
					c-35.695,16.953-59.51,51.886-62.061,91.32c-43.38,670.55,386.568,914.871,527.51,976.588c27.952,12.24,59.709,12.24,87.661,0
					C2629.003,1735.595,3058.951,1491.274,3015.571,820.724z"/>
				<path style="opacity:0.77;fill:#FFFFFF;" d="M2304.339,600.7c-1.862,0-3.645-1.046-4.493-2.839
					c-1.179-2.48-0.123-5.449,2.357-6.624l109.274-51.896c2.486-1.191,5.448-0.126,6.624,2.357c1.178,2.48,0.123,5.449-2.357,6.624
					l-109.274,51.896C2305.779,600.548,2305.054,600.7,2304.339,600.7z"/>
				<path style="opacity:0.77;fill:#FFFFFF;" d="M1908.255,962.632c-2.668,0-4.876-2.117-4.966-4.804
					c-1.463-43.547-0.696-88.962,2.282-134.989c1.777-27.509,18.418-51.974,43.43-63.852l311.11-147.758
					c2.483-1.178,5.448-0.126,6.624,2.357c1.178,2.48,0.123,5.449-2.357,6.624l-311.11,147.758
					c-21.756,10.334-36.227,31.604-37.771,55.513c-2.959,45.703-3.72,90.791-2.269,134.011c0.094,2.745-2.059,5.047-4.801,5.138
					C1908.369,962.632,1908.311,962.632,1908.255,962.632z"/>
				
					<linearGradient id="SVGID_00000142166827695544732910000010043459062358924933_" gradientUnits="userSpaceOnUse" x1="2242.5635" y1="488.0797" x2="2647.1765" y2="1481.2234">
					<stop  offset="0" style="stop-color:#09005D"/>
					<stop  offset="1" style="stop-color:#1A0F91"/>
				</linearGradient>
				<path style="fill:url(#SVGID_00000142166827695544732910000010043459062358924933_);" d="M2903.736,846.895
					c-0.511-9.997-6.462-18.921-15.504-23.215l-432.335-205.333c-7.382-3.506-15.949-3.506-23.331,0L2000.231,823.68
					c-9.042,4.294-14.993,13.218-15.504,23.215c-12.785,250.136,44.992,458.841,171.847,620.601
					c96.715,123.327,209.853,189.417,276.15,220.251c7.304,3.397,15.709,3.397,23.014,0
					c66.297-30.833,179.436-96.925,276.15-220.251C2858.743,1305.737,2916.52,1097.03,2903.736,846.895z"/>
				<g>
					
						<linearGradient id="SVGID_00000034811979314362023960000015432046709362444731_" gradientUnits="userSpaceOnUse" x1="2842.8586" y1="-54.5412" x2="2663.8496" y2="427.7888">
						<stop  offset="0" style="stop-color:#FF928E"/>
						<stop  offset="1" style="stop-color:#FE7062"/>
					</linearGradient>
					<path style="fill:url(#SVGID_00000034811979314362023960000015432046709362444731_);" d="M2316.402,1115.641h-43.089V943.93
						c0-67.443,50.487-124.437,117.437-132.574l88.1-10.706c37.918-4.608,76.07,7.275,104.666,32.606
						c28.594,25.33,44.995,61.767,44.995,99.968v149.906h-43.088V933.224c0-25.875-11.109-50.556-30.478-67.714
						c-19.369-17.158-45.214-25.209-70.896-22.086l-88.1,10.706c-45.349,5.511-79.547,44.117-79.547,89.8V1115.641z"/>
					
						<linearGradient id="SVGID_00000042719491367924661980000014086592472166146975_" gradientUnits="userSpaceOnUse" x1="2642.5366" y1="1049.1638" x2="2059.0706" y2="1639.2601">
						<stop  offset="0" style="stop-color:#FF928E"/>
						<stop  offset="1" style="stop-color:#FE7062"/>
					</linearGradient>
					<path style="fill:url(#SVGID_00000042719491367924661980000014086592472166146975_);" d="M2260.575,1077.09l377.712-20.926
						c15.341-0.85,28.247,11.36,28.247,26.725v299.228c0,14.782-11.983,26.766-26.766,26.766h-368.637
						c-14.443,0-26.281-11.458-26.752-25.894l-9.075-278.302C2234.83,1090.15,2246.052,1077.895,2260.575,1077.09z"/>
					
						<linearGradient id="SVGID_00000158023809704040041200000009709929316796500641_" gradientUnits="userSpaceOnUse" x1="2885.2175" y1="809.5682" x2="3382.4663" y2="302.3738">
						<stop  offset="0" style="stop-color:#E1473D"/>
						<stop  offset="1" style="stop-color:#E9605A"/>
					</linearGradient>
					<path style="fill:url(#SVGID_00000158023809704040041200000009709929316796500641_);" d="M2512.489,1323.164l-22.861-65.726
						c-2.749-7.902-0.876-16.738,5-22.692c11.715-11.871,18.697-28.424,17.87-46.604c-1.458-32.061-27.649-58.056-59.72-59.288
						c-35.491-1.364-64.692,27.004-64.692,62.192c0,19.521,8.991,36.936,23.056,48.343c7.294,5.917,10.293,15.641,7.207,24.512
						l-20.613,59.262c-5.013,14.412,5.688,29.465,20.948,29.465h72.858C2506.801,1352.628,2517.502,1337.576,2512.489,1323.164z"/>
				</g>
			</g>
			
				<linearGradient id="SVGID_00000115472994784647478280000011430195391098597002_" gradientUnits="userSpaceOnUse" x1="3359.6897" y1="2926.5461" x2="3604.802" y2="2926.5461" gradientTransform="matrix(1 0 0 1 -754.9978 0)">
				<stop  offset="0" style="stop-color:#FEBBBA"/>
				<stop  offset="1" style="stop-color:#FF928E"/>
			</linearGradient>
			<path style="fill:url(#SVGID_00000115472994784647478280000011430195391098597002_);" d="M2604.692,2700.271
				c0,0,131.121,285.781,199.915,404.151c0,0,13.663,74.48,0,97.901l-11.644,5.176l54.344-1.618c0,0,4.828-100.184,1.057-105.781
				c-3.77-5.595-11.311-5.229-11.311-5.229s-23.303-184.615-90.788-224.016l-65.402-225.262L2604.692,2700.271z"/>
			
				<linearGradient id="SVGID_00000047018413138342819260000011691208497493719938_" gradientUnits="userSpaceOnUse" x1="3696.6035" y1="2378.3967" x2="3575.2158" y2="3167.4126" gradientTransform="matrix(1 0 0 1 -754.9978 0)">
				<stop  offset="0" style="stop-color:#09005D"/>
				<stop  offset="1" style="stop-color:#1A0F91"/>
			</linearGradient>
			<path style="fill:url(#SVGID_00000047018413138342819260000011691208497493719938_);" d="M2769.753,3221.529
				c-0.08,1.31,42.436,0.712,65.531,0.29c8.528-0.156,15.798-6.149,17.615-14.483l17.442-91.633
				c1.657-8.708-3.872-17.167-12.513-19.141l-9.735-2.226c0,0-13.888,19.051-9.518,36.988c4.372,17.938,8.263,64.4-2.785,69.814
				c-11.048,5.414-42.828,6.36-42.828,6.36S2770.479,3209.728,2769.753,3221.529z"/>
			
				<linearGradient id="SVGID_00000175319944396467687990000011562885663357024399_" gradientUnits="userSpaceOnUse" x1="3439.761" y1="2338.8855" x2="3318.3733" y2="3127.9019" gradientTransform="matrix(1 0 0 1 -754.9978 0)">
				<stop  offset="0" style="stop-color:#09005D"/>
				<stop  offset="1" style="stop-color:#1A0F91"/>
			</linearGradient>
			<path style="fill:url(#SVGID_00000175319944396467687990000011562885663357024399_);" d="M2480.412,3223.192
				c-4.3,2.451-2.527,9.016,2.423,8.966c38.65-0.388,125.256-1.611,132.952-4.811c9.936-4.132-3.621-39.835-17.888-51.919
				l-78.778,25.711L2480.412,3223.192z"/>
			
				<linearGradient id="SVGID_00000181775879292417615260000006686925427230076310_" gradientUnits="userSpaceOnUse" x1="3210.9563" y1="2944.7717" x2="3352.896" y2="2944.7717" gradientTransform="matrix(1 0 0 1 -754.9978 0)">
				<stop  offset="0" style="stop-color:#FEBBBA"/>
				<stop  offset="1" style="stop-color:#FF928E"/>
			</linearGradient>
			<path style="fill:url(#SVGID_00000181775879292417615260000006686925427230076310_);" d="M2455.958,2682.045
				c0,0,84.734,409.909,108.704,489.87l-56.705,35.584c0,0,28.417-4.833,49.488-6.36c21.071-1.527,40.453-25.711,40.453-25.711
				l-6.793-10.835c0,0-21.249-407.677-16.075-453.97L2455.958,2682.045z"/>
			
				<linearGradient id="SVGID_00000023990292291274440410000016702026366807552933_" gradientUnits="userSpaceOnUse" x1="2905.1931" y1="1879.8488" x2="3183.0654" y2="1879.8488" gradientTransform="matrix(1 0 0 1 -754.9978 0)">
				<stop  offset="0" style="stop-color:#FEBBBA"/>
				<stop  offset="1" style="stop-color:#FF928E"/>
			</linearGradient>
			<path style="fill:url(#SVGID_00000023990292291274440410000016702026366807552933_);" d="M2245.622,1725.928
				c0,0-11.688,213.231,182.446,322.193l-46.738,106.597c0,0-175.763-106.31-169.263-396.26c0.186-8.321-2.816-16.402-8.25-22.706
				l-37.355-43.337c-14.233-16.511-19.551-38.91-14.261-60.056l4.917-19.655c1.646-6.58,9.141-9.746,15.006-6.34l3.906,2.269
				c12.437,7.223,22.287,18.172,28.16,31.3l18.758,29.599c6.852,15.316,8.451,21.742,25.167,20.298l31.082,0.35L2245.622,1725.928z"
				/>
			
				<linearGradient id="SVGID_00000177454778313422916860000009703699220062423188_" gradientUnits="userSpaceOnUse" x1="3637.9199" y1="1724.0153" x2="3056.1382" y2="1962.6948">
				<stop  offset="0" style="stop-color:#FF928E"/>
				<stop  offset="1" style="stop-color:#FE7062"/>
			</linearGradient>
			<path style="fill:url(#SVGID_00000177454778313422916860000009703699220062423188_);" d="M2421.311,2032.142
				c32.478,9.007,142.509,37.952,211.2,36.769l-42.174,237.999l3.356,38.818l-137.508-0.616c0,0-38.709-89.899-69.25-134.719
				c-8.821-12.945-2.256-28.385,2.744-43.23l-6.868-4.573c-6.99-4.653-10.021-13.395-7.413-21.377l33.486-102.451
				C2410.622,2033.599,2416.06,2030.686,2421.311,2032.142z"/>
			
				<linearGradient id="SVGID_00000162348223072784262780000014039657333381966771_" gradientUnits="userSpaceOnUse" x1="3085.6375" y1="2303.5479" x2="3540.8381" y2="2816.9128" gradientTransform="matrix(1 0 0 1 -754.9978 0)">
				<stop  offset="0" style="stop-color:#E1473D"/>
				<stop  offset="1" style="stop-color:#E9605A"/>
			</linearGradient>
			<path style="fill:url(#SVGID_00000162348223072784262780000014039657333381966771_);" d="M2445.167,2324.799l2.705,23.518
				c0,0-38.859,116.375,19.43,388.184c0,0,126.242,35.764,229.999-49.815c0,0-29.268-256.546-37.263-268.496
				c-39.82-59.521-66.345-72.461-66.345-72.461l-1.196-25.692C2592.497,2320.037,2481.522,2340.101,2445.167,2324.799z"/>
			
				<linearGradient id="SVGID_00000144330426125285997230000001877168561209894843_" gradientUnits="userSpaceOnUse" x1="3253.9866" y1="2016.2711" x2="3340.8457" y2="2016.2711" gradientTransform="matrix(1 0 0 1 -754.9978 0)">
				<stop  offset="0" style="stop-color:#FEBBBA"/>
				<stop  offset="1" style="stop-color:#FF928E"/>
			</linearGradient>
			<path style="fill:url(#SVGID_00000144330426125285997230000001877168561209894843_);" d="M2498.995,2051.323
				c-0.483-0.637,28.707-88.129,28.707-88.129l41.812,3.793l16.334,99.255C2585.848,2066.242,2520.32,2079.469,2498.995,2051.323z"
				/>
			<g>
				
					<linearGradient id="SVGID_00000147217562284987620900000010930073391514509188_" gradientUnits="userSpaceOnUse" x1="3392.033" y1="1904.0237" x2="4024.2559" y2="1947.0148" gradientTransform="matrix(1 0 0 1 -754.9978 0)">
					<stop  offset="0" style="stop-color:#FEBBBA"/>
					<stop  offset="1" style="stop-color:#FF928E"/>
				</linearGradient>
				<path style="fill:url(#SVGID_00000147217562284987620900000010930073391514509188_);" d="M2559.504,1825.219
					c-2.788,1.736-89.347,37.508-70.749,127.372c1.099,5.31,4.642,9.811,9.595,12.02c12.702,5.666,40.047,15.367,72.755,12.043
					c45.345-4.608,75.059-83.736,73.795-106.762C2643.635,1846.865,2587.136,1808.012,2559.504,1825.219z"/>
				<g>
					
						<linearGradient id="SVGID_00000074421254419583179020000003181136948865364666_" gradientUnits="userSpaceOnUse" x1="222.1581" y1="3746.8877" x2="-223.9994" y2="4117.8213" gradientTransform="matrix(0.1482 0.9889 -0.9889 0.1482 6632.8965 1633.7571)">
						<stop  offset="0" style="stop-color:#09005D"/>
						<stop  offset="1" style="stop-color:#1A0F91"/>
					</linearGradient>
					<path style="fill:url(#SVGID_00000074421254419583179020000003181136948865364666_);" d="M2552.751,1907.711
						c-13.421-33.512-25.886-62.962-11.807-85.368c20.706-32.955,102.784-35.433,145.404,9.489
						c44.49,46.895,2.196,109.542,47.974,160.387c35.76,39.72,76.99,18.616,127.01,48.795
						c82.98,50.068,123.685,201.172,74.492,284.09c-80.418,135.551-402.734,91.666-452.716-21.265
						C2438.771,2203.663,2615.792,2065.129,2552.751,1907.711z"/>
					<path style="opacity:0.39;fill:#FFFFFF;" d="M2664.375,2097.287c-0.258-0.63-0.507-1.262-0.747-1.9
						c-9.365-24.94-7.774-55.131,4.863-92.294c19.685-57.877,19.126-76.613,5.313-110.297c-0.402-0.98-0.814-1.971-1.241-2.978
						l1.367-0.573c0.4,0.949,0.79,1.887,1.171,2.816c13.822,33.704,14.511,53.543-5.207,111.508
						c-12.522,36.826-14.118,66.69-4.876,91.3c9.979,26.539,37.286,47.266,74.92,56.741c16.414,4.132,33.544,6.196,50.113,8.19
						c15.527,1.871,31.583,3.804,47.066,7.438c11.28,2.646,27.691,7.429,39.94,18.371c12.202,10.885,17.918,26.637,14.577,40.119
						l-1.44-0.354c3.215-12.957-2.33-28.126-14.122-38.661c-12.001-10.714-28.172-15.423-39.296-18.033
						c-15.401-3.615-31.417-5.542-46.904-7.407c-16.613-2.002-33.792-4.07-50.295-8.225
						C2702.361,2143.679,2675.092,2123.419,2664.375,2097.287z"/>
					<path style="opacity:0.39;fill:#FFFFFF;" d="M2633.072,2119.351c-1.058-2.581-1.959-5.189-2.696-7.818
						c-4.714-16.793-2.584-39.491,12.798-52.353l0.949,1.138c-14.872,12.435-16.906,34.482-12.322,50.814
						c5.932,21.124,22.576,40.856,46.878,55.599c16.016,9.722,33.802,16.746,51.006,23.541c5.695,2.25,11.59,4.577,17.333,6.97
						c25.274,10.528,49.85,23.221,73.05,37.724c15.365,9.604,30.432,20.727,37.097,36.98c0.223,0.543,0.436,1.091,0.641,1.645
						c3.632,9.893,2.486,22.247-2.913,31.471c-4.166,7.116-10.439,11.674-17.669,12.838l-0.236-1.461
						c6.783-1.093,12.688-5.399,16.625-12.126c5.187-8.858,6.286-20.718,2.801-30.214c-6.174-16.776-21.477-28.093-37.131-37.879
						c-23.13-14.461-47.637-27.115-72.835-37.614c-5.729-2.384-11.615-4.709-17.307-6.957c-17.258-6.816-35.105-13.865-51.23-23.653
						C2656.299,2154.887,2640.654,2137.838,2633.072,2119.351z"/>
					<path style="opacity:0.39;fill:#FFFFFF;" d="M2619.024,2144.021c-2.57-6.267-3.939-13.122-3.361-20.466l1.479,0.114
						c-2.075,26.339,22.756,46.686,33.529,54.207c12.08,8.436,25.483,15.51,38.444,22.35c21.425,11.306,43.579,22.998,60.139,41.107
						c8.479,9.264,13.891,18.74,16.093,28.153c2.712,11.608,0.37,23.309-6.27,31.302l-1.138-0.948
						c6.343-7.64,8.573-18.86,5.963-30.02c-2.138-9.141-7.436-18.409-15.74-27.49c-16.387-17.918-38.425-29.548-59.739-40.795
						c-13.002-6.862-26.446-13.958-38.599-22.444C2640.018,2172.242,2625.595,2160.044,2619.024,2144.021z"/>
				</g>
			</g>
		</g>
	</g>
</g>
</svg>
